<?xml version="1.0" encoding="UTF-8"?>
<!-- Generator: Adobe Illustrator 19.0.0, SVG Export Plug-In . SVG Version: 6.00 Build 0)  -->
<svg version="1.1" id="Layer_1" xmlns="http://www.w3.org/2000/svg" xmlns:xlink="http://www.w3.org/1999/xlink" x="0px" y="0px" viewBox="0 0 119 106" style="enable-background:new 0 0 119 106;" xml:space="preserve">
<style type="text/css">
	.st0{fill:#06566F;}
</style>
<g id="XMLID_5106_">
	<g id="XMLID_5116_">
		<circle id="XMLID_5120_" class="st0" cx="59.5" cy="52.9" r="10.6"/>
		<path id="XMLID_5117_" class="st0" d="M59.5,63.6c-5.9,0-10.7-4.8-10.7-10.7s4.8-10.7,10.7-10.7c5.9,0,10.7,4.8,10.7,10.7    S65.4,63.6,59.5,63.6z M59.5,42.4c-5.8,0-10.5,4.7-10.5,10.5s4.7,10.5,10.5,10.5S70,58.7,70,52.9S65.3,42.4,59.5,42.4z"/>
	</g>
	<path id="XMLID_5113_" class="st0" d="M59.5,77.1c-14.8,0-27.8-1.8-37.5-5.1c-6.3-2.2-11.6-5-15.4-8.3c-4-3.5-6.2-7.2-6.2-10.9   c0-7,7.7-13.8,20.5-18.3c10.5-3.7,24.2-5.7,38.6-5.7c14.1,0,27.6,2,38.1,5.6c6.1,2.1,11.3,4.8,14.9,7.9c4,3.3,6.1,7,6.1,10.5   c0,7.3-8.6,14.6-22.4,19.2C86.5,75.3,73.4,77.1,59.5,77.1z M59.5,33.9c-13.6,0-27.1,2-37,5.4C10.7,43.5,5.4,49.1,5.4,52.9   c0,3.9,5.7,10.1,18.2,14.4c9.2,3.1,21.6,4.8,35.9,4.8c13.4,0,25.9-1.7,35.2-4.8c13-4.3,18.9-10.5,18.9-14.4c0-2-1.5-4.3-4.3-6.6   c-3.2-2.7-7.8-5.1-13.4-7C86,35.8,73.1,33.9,59.5,33.9z"/>
	<path id="XMLID_5110_" class="st0" d="M35.5,105.6c-2.1,0-4-0.5-5.6-1.4c-6-3.5-8.1-13.6-5.6-26.9c2.1-11,7.2-23.9,14.4-36.3   c7-12.2,15.5-22.9,23.9-30.2c4.9-4.3,9.8-7.4,14.3-9c4.9-1.8,9.1-1.8,12.2,0c6.3,3.6,8.4,14.7,5.4,29C92.3,40.8,87.3,53,80.4,65   C73,77.9,65,88.2,57.3,95c-5,4.4-10.2,7.6-14.9,9.2C39.9,105.1,37.6,105.6,35.5,105.6z M40.8,42.2l2.2,1.3   c-6.8,11.8-11.8,24.4-13.8,34.7c-2.3,12.3-0.1,19.7,3.2,21.6c3.4,2,11.6,0.1,21.5-8.6c7.3-6.4,14.9-16.3,22.1-28.7   c6.7-11.6,11.5-23.3,13.4-32.8c2.8-13.4,0.4-21.6-3-23.6c-1.7-1-4.5-0.9-7.9,0.4c-3.9,1.4-8.3,4.2-12.7,8.1   c-7.9,6.9-16,17.2-22.8,28.9L40.8,42.2z"/>
	<path id="XMLID_5107_" class="st0" d="M83.5,105.6c-5.7,0-13-3.5-20.6-10c-8.5-7.3-17.1-18.1-24.3-30.6h0   c-7.1-12.2-12.1-24.9-14.3-35.8c-1.2-6.4-1.5-12.2-0.7-16.9c0.9-5.1,3-8.8,6.1-10.5c6.3-3.6,16.9,0.1,27.8,9.8   c7.7,6.8,15.8,17.2,22.8,29.3c7.4,12.8,12.4,24.9,14.4,35c1.3,6.5,1.5,12.6,0.6,17.5c-1,5.2-3.2,9-6.3,10.8   C87.4,105.2,85.6,105.6,83.5,105.6z M43,62.5C49.8,74.3,58.3,85,66.2,91.8c9.5,8.2,17,9.9,20.3,8c3.4-2,5.9-10,3.3-23   c-1.9-9.5-6.7-21.1-13.8-33.5c-6.7-11.6-14.4-21.5-21.7-28C44,6.3,35.7,4.3,32.3,6.2c-1.7,1-3,3.5-3.6,7c-0.7,4.1-0.5,9.3,0.6,15.1   C31.4,38.7,36.2,50.8,43,62.5L43,62.5z"/>
</g>
</svg>